<?xml version="1.0" encoding="utf-8"?>
<!-- Generator: Adobe Illustrator 19.1.0, SVG Export Plug-In . SVG Version: 6.00 Build 0)  -->
<svg version="1.1" xmlns="http://www.w3.org/2000/svg" xmlns:xlink="http://www.w3.org/1999/xlink" x="0px" y="0px"
	 viewBox="0 0 271.3 41.9" style="enable-background:new 0 0 271.3 41.9;" xml:space="preserve">
<g id="Layer_2">
	<rect width="271.3" height="41.9"/>
</g>
<g id="Layer_1">
	<g>
		<path style="fill:#2E3192;" d="M101.4,28.5c2.4,0,4.4,2,4.4,4.4c0,2.4-2,4.4-4.4,4.4c-2.4,0-4.4-2-4.4-4.4
			C97.1,30.4,99,28.5,101.4,28.5z"/>
		<path style="fill:#981B1E;" d="M119.4,28.5c2.4,0,4.4,2,4.4,4.4c0,2.4-2,4.4-4.4,4.4c-2.4,0-4.4-2-4.4-4.4
			C115,30.4,117,28.5,119.4,28.5z"/>
		<path style="fill:#007071;" d="M137.4,28.5c2.4,0,4.4,2,4.4,4.4c0,2.4-2,4.4-4.4,4.4c-2.4,0-4.4-2-4.4-4.4
			C133,30.4,135,28.5,137.4,28.5z"/>
		<path style="fill:#BD1A8D;" d="M155.4,28.5c2.4,0,4.4,2,4.4,4.4c0,2.4-2,4.4-4.4,4.4c-2.4,0-4.4-2-4.4-4.4
			C151,30.4,153,28.5,155.4,28.5z"/>
		<path style="fill:#6D9D31;" d="M173.4,28.5c2.4,0,4.4,2,4.4,4.4c0,2.4-2,4.4-4.4,4.4c-2.4,0-4.4-2-4.4-4.4
			C169,30.4,171,28.5,173.4,28.5z"/>
		<path style="fill:#5B57A6;" d="M210.3,29.6c2.4,0,4.4,2,4.4,4.4c0,2.4-2,4.4-4.4,4.4c-2.4,0-4.4-2-4.4-4.4
			C205.9,31.6,207.9,29.6,210.3,29.6z"/>
		<path style="fill:#C1272D;" d="M228.3,29.6c2.4,0,4.4,2,4.4,4.4c0,2.4-2,4.4-4.4,4.4c-2.4,0-4.4-2-4.4-4.4
			C223.9,31.5,225.8,29.6,228.3,29.6z"/>
		<path style="fill:#008EB0;" d="M246.2,29.6c2.4,0,4.4,2,4.4,4.4c0,2.4-2,4.4-4.4,4.4c-2.4,0-4.4-2-4.4-4.4
			C241.9,31.5,243.8,29.6,246.2,29.6z"/>
		<path style="fill:#FFC20E;" d="M264.2,29.6c2.4,0,4.4,2,4.4,4.4c0,2.4-2,4.4-4.4,4.4c-2.4,0-4.4-2-4.4-4.4
			C259.9,31.6,261.8,29.6,264.2,29.6z"/>
		<path style="fill:#F7941E;" d="M192.3,29.6c2.4,0,4.4,2,4.4,4.4c0,2.4-2,4.4-4.4,4.4c-2.4,0-4.4-2-4.4-4.4
			C187.9,31.6,189.9,29.6,192.3,29.6z"/>
	</g>
	<g>
		<path style="fill:#FFFFFF;" d="M11.7,3.4l6.4,17.1h-3.9l-1.3-3.8H6.5l-1.3,3.8H1.3L7.8,3.4H11.7z M11.9,13.9L9.7,7.7h0l-2.2,6.3
			H11.9z"/>
		<path style="fill:#FFFFFF;" d="M22.4,8.2v2.3h0c0.2-0.4,0.4-0.7,0.6-1.1c0.3-0.3,0.6-0.6,0.9-0.8c0.4-0.2,0.7-0.4,1.1-0.5
			c0.4-0.1,0.8-0.2,1.2-0.2c0.2,0,0.5,0,0.7,0.1v3.2c-0.2,0-0.4-0.1-0.6-0.1c-0.2,0-0.4,0-0.6,0c-0.6,0-1.2,0.1-1.6,0.3
			c-0.4,0.2-0.8,0.5-1,0.9c-0.3,0.4-0.5,0.8-0.6,1.3c-0.1,0.5-0.2,1-0.2,1.6v5.6h-3.4V8.2H22.4z"/>
		<path style="fill:#FFFFFF;" d="M35.3,8.2v2.3h-2.5v6.1c0,0.6,0.1,1,0.3,1.2c0.2,0.2,0.6,0.3,1.2,0.3c0.2,0,0.4,0,0.6,0
			c0.2,0,0.3,0,0.5-0.1v2.6c-0.3,0-0.6,0.1-1,0.1c-0.4,0-0.7,0-1,0c-0.5,0-1,0-1.5-0.1c-0.5-0.1-0.9-0.2-1.2-0.4
			c-0.4-0.2-0.6-0.5-0.9-0.9s-0.3-0.9-0.3-1.5v-7.3h-2.1V8.2h2.1V4.4h3.4v3.7H35.3z"/>
		<path style="fill:#FFFFFF;" d="M37.1,6.2V3.4h3.4v2.8H37.1z M40.5,8.2v12.4h-3.4V8.2H40.5z"/>
		<path style="fill:#FFFFFF;" d="M46,17.5c0.2,0.3,0.3,0.5,0.6,0.6s0.5,0.3,0.8,0.4c0.3,0.1,0.6,0.1,1,0.1c0.2,0,0.5,0,0.8-0.1
			c0.3-0.1,0.5-0.1,0.7-0.3c0.2-0.1,0.4-0.3,0.5-0.5c0.1-0.2,0.2-0.5,0.2-0.8c0-0.5-0.3-0.9-1-1.2c-0.7-0.3-1.6-0.5-2.8-0.8
			c-0.5-0.1-1-0.2-1.5-0.4c-0.5-0.2-0.9-0.4-1.3-0.6s-0.7-0.6-0.9-0.9c-0.2-0.4-0.3-0.8-0.3-1.4c0-0.8,0.2-1.5,0.5-2
			c0.3-0.5,0.7-0.9,1.2-1.2c0.5-0.3,1.1-0.5,1.7-0.6c0.6-0.1,1.3-0.2,2-0.2s1.3,0.1,2,0.2s1.2,0.3,1.7,0.6c0.5,0.3,0.9,0.7,1.2,1.2
			s0.5,1.1,0.6,1.9h-3.2c0-0.7-0.3-1.1-0.7-1.3c-0.4-0.2-1-0.3-1.6-0.3c-0.2,0-0.4,0-0.6,0c-0.2,0-0.4,0.1-0.6,0.2s-0.3,0.2-0.5,0.3
			s-0.2,0.4-0.2,0.6c0,0.3,0.1,0.6,0.3,0.7c0.2,0.2,0.5,0.3,0.9,0.5c0.4,0.1,0.8,0.2,1.2,0.3c0.5,0.1,0.9,0.2,1.4,0.3
			c0.5,0.1,1,0.2,1.5,0.4c0.5,0.2,0.9,0.4,1.3,0.6s0.7,0.6,0.9,1c0.2,0.4,0.3,0.9,0.3,1.5c0,0.8-0.2,1.5-0.5,2.1
			c-0.3,0.6-0.8,1-1.3,1.3s-1.1,0.6-1.8,0.7c-0.7,0.1-1.4,0.2-2.1,0.2c-0.7,0-1.4-0.1-2.1-0.2c-0.7-0.1-1.3-0.4-1.8-0.7
			s-1-0.8-1.3-1.3c-0.3-0.6-0.5-1.2-0.6-2.1h3.2C45.8,16.9,45.9,17.2,46,17.5z"/>
		<path style="fill:#FFFFFF;" d="M62.9,8.2v2.3h-2.5v6.1c0,0.6,0.1,1,0.3,1.2c0.2,0.2,0.6,0.3,1.2,0.3c0.2,0,0.4,0,0.6,0
			c0.2,0,0.3,0,0.5-0.1v2.6c-0.3,0-0.6,0.1-1,0.1c-0.4,0-0.7,0-1,0c-0.5,0-1,0-1.5-0.1c-0.5-0.1-0.9-0.2-1.2-0.4
			c-0.4-0.2-0.6-0.5-0.9-0.9S57,18.4,57,17.8v-7.3h-2.1V8.2H57V4.4h3.4v3.7H62.9z"/>
		<path style="fill:#FFFFFF;" d="M80.8,3.4c0.8,0,1.5,0.1,2.1,0.4c0.6,0.2,1.1,0.6,1.6,1c0.4,0.4,0.8,0.9,1,1.5
			c0.2,0.6,0.3,1.2,0.3,1.8c0,1-0.2,1.9-0.6,2.6c-0.4,0.7-1.1,1.3-2.1,1.7v0c0.5,0.1,0.8,0.3,1.2,0.6s0.6,0.6,0.7,0.9
			c0.2,0.4,0.3,0.8,0.4,1.2s0.1,0.9,0.2,1.3c0,0.3,0,0.6,0,1c0,0.4,0,0.7,0.1,1.1c0,0.4,0.1,0.7,0.2,1.1c0.1,0.3,0.2,0.6,0.4,0.9
			h-3.8c-0.2-0.5-0.3-1.2-0.4-1.9c0-0.8-0.1-1.5-0.2-2.2c-0.1-0.9-0.4-1.6-0.8-2c-0.4-0.4-1.1-0.6-2-0.6h-3.8v6.7h-3.8V3.4H80.8z
			 M79.4,11.2c0.9,0,1.5-0.2,1.9-0.6c0.4-0.4,0.6-1,0.6-1.9c0-0.8-0.2-1.4-0.6-1.8c-0.4-0.4-1.1-0.6-1.9-0.6h-4.1v4.8H79.4z"/>
		<path style="fill:#FFFFFF;" d="M92.2,17.6c0.5,0.5,1.2,0.7,2.2,0.7c0.7,0,1.3-0.2,1.8-0.5c0.5-0.3,0.8-0.7,0.9-1.1h3
			c-0.5,1.5-1.2,2.6-2.2,3.2s-2.2,1-3.6,1c-1,0-1.9-0.2-2.6-0.5c-0.8-0.3-1.4-0.8-2-1.3c-0.5-0.6-1-1.3-1.3-2.1
			c-0.3-0.8-0.4-1.7-0.4-2.6c0-0.9,0.2-1.8,0.5-2.6c0.3-0.8,0.7-1.5,1.3-2.1c0.6-0.6,1.2-1,2-1.4c0.8-0.3,1.6-0.5,2.6-0.5
			c1.1,0,2,0.2,2.8,0.6c0.8,0.4,1.4,1,1.9,1.6s0.9,1.5,1.1,2.4c0.2,0.9,0.3,1.8,0.2,2.8h-9C91.4,16.3,91.6,17.1,92.2,17.6z M96,11.1
			c-0.4-0.4-1-0.7-1.9-0.7c-0.5,0-1,0.1-1.4,0.3s-0.6,0.4-0.9,0.7s-0.4,0.6-0.5,0.9c-0.1,0.3-0.1,0.6-0.2,0.8h5.5
			C96.7,12.2,96.4,11.5,96,11.1z"/>
		<path style="fill:#FFFFFF;" d="M105.4,20.6l-4.2-12.4h3.6l2.6,8.5h0l2.6-8.5h3.4l-4.2,12.4H105.4z"/>
		<path style="fill:#FFFFFF;" d="M118.4,17.6c0.5,0.5,1.2,0.7,2.2,0.7c0.7,0,1.3-0.2,1.8-0.5c0.5-0.3,0.8-0.7,0.9-1.1h3
			c-0.5,1.5-1.2,2.6-2.2,3.2s-2.2,1-3.6,1c-1,0-1.9-0.2-2.6-0.5c-0.8-0.3-1.4-0.8-2-1.3c-0.5-0.6-1-1.3-1.3-2.1
			c-0.3-0.8-0.4-1.7-0.4-2.6c0-0.9,0.2-1.8,0.5-2.6c0.3-0.8,0.7-1.5,1.3-2.1c0.6-0.6,1.2-1,2-1.4c0.8-0.3,1.6-0.5,2.6-0.5
			c1.1,0,2,0.2,2.8,0.6c0.8,0.4,1.4,1,1.9,1.6s0.9,1.5,1.1,2.4c0.2,0.9,0.3,1.8,0.2,2.8h-9C117.6,16.3,117.9,17.1,118.4,17.6z
			 M122.3,11.1c-0.4-0.4-1-0.7-1.9-0.7c-0.5,0-1,0.1-1.4,0.3s-0.6,0.4-0.9,0.7s-0.4,0.6-0.5,0.9c-0.1,0.3-0.1,0.6-0.2,0.8h5.5
			C123,12.2,122.7,11.5,122.3,11.1z"/>
		<path style="fill:#FFFFFF;" d="M131.8,8.2v1.7h0.1c0.4-0.7,1-1.2,1.7-1.6c0.7-0.3,1.4-0.5,2.1-0.5c0.9,0,1.7,0.1,2.2,0.4
			c0.6,0.2,1,0.6,1.4,1s0.6,1,0.7,1.6c0.1,0.6,0.2,1.3,0.2,2.1v7.6h-3.4v-7c0-1-0.2-1.8-0.5-2.3c-0.3-0.5-0.9-0.8-1.7-0.8
			c-0.9,0-1.6,0.3-2,0.8c-0.4,0.6-0.6,1.5-0.6,2.7v6.5h-3.4V8.2H131.8z"/>
		<path style="fill:#FFFFFF;" d="M151.2,20.6v-1.7h-0.1c-0.4,0.7-1,1.2-1.7,1.6c-0.7,0.3-1.4,0.5-2.1,0.5c-0.9,0-1.7-0.1-2.2-0.4
			s-1-0.6-1.4-1c-0.3-0.4-0.6-1-0.7-1.6c-0.1-0.6-0.2-1.3-0.2-2.1V8.2h3.4v7c0,1,0.2,1.8,0.5,2.3s0.9,0.8,1.7,0.8
			c0.9,0,1.6-0.3,2-0.8c0.4-0.6,0.6-1.5,0.6-2.7V8.2h3.4v12.4H151.2z"/>
		<path style="fill:#FFFFFF;" d="M160.6,17.6c0.5,0.5,1.2,0.7,2.2,0.7c0.7,0,1.3-0.2,1.8-0.5c0.5-0.3,0.8-0.7,0.9-1.1h3
			c-0.5,1.5-1.2,2.6-2.2,3.2s-2.2,1-3.6,1c-1,0-1.9-0.2-2.6-0.5c-0.8-0.3-1.4-0.8-2-1.3c-0.5-0.6-1-1.3-1.3-2.1
			c-0.3-0.8-0.4-1.7-0.4-2.6c0-0.9,0.2-1.8,0.5-2.6c0.3-0.8,0.7-1.5,1.3-2.1c0.6-0.6,1.2-1,2-1.4c0.8-0.3,1.6-0.5,2.6-0.5
			c1.1,0,2,0.2,2.8,0.6c0.8,0.4,1.4,1,1.9,1.6s0.9,1.5,1.1,2.4c0.2,0.9,0.3,1.8,0.2,2.8h-9C159.9,16.3,160.1,17.1,160.6,17.6z
			 M164.5,11.1c-0.4-0.4-1-0.7-1.9-0.7c-0.5,0-1,0.1-1.4,0.3s-0.6,0.4-0.9,0.7s-0.4,0.6-0.5,0.9c-0.1,0.3-0.1,0.6-0.2,0.8h5.5
			C165.2,12.2,164.9,11.5,164.5,11.1z"/>
		<path style="fill:#FFFFFF;" d="M180.7,16.3c0.2,0.4,0.5,0.7,0.8,1c0.3,0.2,0.7,0.4,1.2,0.6c0.5,0.1,0.9,0.2,1.4,0.2
			c0.3,0,0.7,0,1.1-0.1c0.4-0.1,0.7-0.2,1.1-0.3c0.3-0.2,0.6-0.4,0.8-0.7c0.2-0.3,0.3-0.6,0.3-1.1c0-0.5-0.1-0.8-0.4-1.1
			c-0.3-0.3-0.7-0.5-1.2-0.7c-0.5-0.2-1-0.4-1.6-0.5c-0.6-0.1-1.2-0.3-1.8-0.5c-0.6-0.2-1.3-0.4-1.9-0.6c-0.6-0.2-1.2-0.5-1.6-0.9
			c-0.5-0.4-0.9-0.8-1.2-1.4c-0.3-0.6-0.4-1.2-0.4-2c0-0.9,0.2-1.6,0.6-2.3s0.9-1.2,1.5-1.6c0.6-0.4,1.3-0.8,2.1-1
			c0.8-0.2,1.5-0.3,2.3-0.3c0.9,0,1.8,0.1,2.6,0.3c0.8,0.2,1.6,0.5,2.2,1c0.6,0.4,1.1,1,1.5,1.7c0.4,0.7,0.6,1.5,0.6,2.5h-3.6
			c0-0.5-0.1-0.9-0.3-1.3c-0.2-0.3-0.4-0.6-0.7-0.8s-0.7-0.3-1-0.4C184.4,6,184,6,183.5,6c-0.3,0-0.6,0-0.9,0.1
			c-0.3,0.1-0.6,0.2-0.8,0.3c-0.2,0.2-0.5,0.4-0.6,0.6C181,7.2,181,7.5,181,7.9c0,0.3,0.1,0.6,0.2,0.8c0.1,0.2,0.4,0.4,0.8,0.6
			s0.9,0.4,1.6,0.5c0.7,0.2,1.5,0.4,2.6,0.7c0.3,0.1,0.8,0.2,1.3,0.3c0.6,0.2,1.1,0.4,1.7,0.8c0.6,0.4,1,0.9,1.5,1.5
			c0.4,0.6,0.6,1.4,0.6,2.4c0,0.8-0.2,1.5-0.5,2.2c-0.3,0.7-0.8,1.3-1.4,1.7c-0.6,0.5-1.3,0.9-2.2,1.1c-0.9,0.3-1.9,0.4-3.1,0.4
			c-0.9,0-1.9-0.1-2.7-0.3s-1.7-0.6-2.4-1.1c-0.7-0.5-1.2-1.1-1.6-1.9c-0.4-0.8-0.6-1.7-0.6-2.7h3.6
			C180.4,15.5,180.5,15.9,180.7,16.3z"/>
		<path style="fill:#FFFFFF;" d="M199.8,8.2v2.3h-2.5v6.1c0,0.6,0.1,1,0.3,1.2c0.2,0.2,0.6,0.3,1.2,0.3c0.2,0,0.4,0,0.6,0
			c0.2,0,0.3,0,0.5-0.1v2.6c-0.3,0-0.6,0.1-1,0.1c-0.4,0-0.7,0-1,0c-0.5,0-1,0-1.5-0.1c-0.5-0.1-0.9-0.2-1.2-0.4
			c-0.4-0.2-0.6-0.5-0.9-0.9s-0.3-0.9-0.3-1.5v-7.3h-2.1V8.2h2.1V4.4h3.4v3.7H199.8z"/>
		<path style="fill:#FFFFFF;" d="M204.7,8.2v2.3h0c0.2-0.4,0.4-0.7,0.6-1.1c0.3-0.3,0.6-0.6,0.9-0.8c0.4-0.2,0.7-0.4,1.1-0.5
			c0.4-0.1,0.8-0.2,1.2-0.2c0.2,0,0.5,0,0.7,0.1v3.2c-0.2,0-0.4-0.1-0.6-0.1c-0.2,0-0.4,0-0.6,0c-0.6,0-1.2,0.1-1.6,0.3
			c-0.4,0.2-0.8,0.5-1,0.9c-0.3,0.4-0.5,0.8-0.6,1.3c-0.1,0.5-0.2,1-0.2,1.6v5.6h-3.4V8.2H204.7z"/>
		<path style="fill:#FFFFFF;" d="M214,17.6c0.5,0.5,1.2,0.7,2.2,0.7c0.7,0,1.3-0.2,1.8-0.5c0.5-0.3,0.8-0.7,0.9-1.1h3
			c-0.5,1.5-1.2,2.6-2.2,3.2s-2.2,1-3.6,1c-1,0-1.9-0.2-2.6-0.5c-0.8-0.3-1.4-0.8-2-1.3c-0.5-0.6-1-1.3-1.3-2.1
			c-0.3-0.8-0.4-1.7-0.4-2.6c0-0.9,0.2-1.8,0.5-2.6c0.3-0.8,0.7-1.5,1.3-2.1c0.6-0.6,1.2-1,2-1.4c0.8-0.3,1.6-0.5,2.6-0.5
			c1.1,0,2,0.2,2.8,0.6c0.8,0.4,1.4,1,1.9,1.6s0.9,1.5,1.1,2.4c0.2,0.9,0.3,1.8,0.2,2.8h-9C213.2,16.3,213.5,17.1,214,17.6z
			 M217.9,11.1c-0.4-0.4-1-0.7-1.9-0.7c-0.5,0-1,0.1-1.4,0.3s-0.6,0.4-0.9,0.7s-0.4,0.6-0.5,0.9c-0.1,0.3-0.1,0.6-0.2,0.8h5.5
			C218.6,12.2,218.3,11.5,217.9,11.1z"/>
		<path style="fill:#FFFFFF;" d="M224,12c0-0.8,0.2-1.5,0.6-2c0.4-0.5,0.8-1,1.3-1.3c0.5-0.3,1.2-0.5,1.8-0.7
			c0.7-0.1,1.4-0.2,2.1-0.2c0.6,0,1.3,0,1.9,0.1s1.2,0.3,1.8,0.5c0.5,0.3,1,0.6,1.3,1.1s0.5,1.1,0.5,1.8v6.5c0,0.6,0,1.1,0.1,1.6
			c0.1,0.5,0.2,0.9,0.3,1.2h-3.5c-0.1-0.2-0.1-0.4-0.2-0.6s-0.1-0.4-0.1-0.6c-0.5,0.6-1.2,1-1.9,1.2c-0.7,0.2-1.5,0.3-2.3,0.3
			c-0.6,0-1.1-0.1-1.7-0.2c-0.5-0.1-1-0.4-1.3-0.7c-0.4-0.3-0.7-0.7-0.9-1.2c-0.2-0.5-0.3-1-0.3-1.7c0-0.7,0.1-1.3,0.4-1.7
			s0.6-0.8,1-1.1c0.4-0.3,0.8-0.5,1.3-0.6c0.5-0.1,1-0.2,1.5-0.3s1-0.1,1.5-0.2c0.5,0,0.9-0.1,1.3-0.2c0.4-0.1,0.7-0.2,0.9-0.4
			c0.2-0.2,0.3-0.5,0.3-0.8c0-0.4-0.1-0.7-0.2-0.9c-0.1-0.2-0.3-0.4-0.5-0.5c-0.2-0.1-0.4-0.2-0.7-0.2s-0.5-0.1-0.9-0.1
			c-0.7,0-1.2,0.1-1.6,0.4c-0.4,0.3-0.6,0.8-0.7,1.4H224z M231.9,14.5c-0.1,0.1-0.3,0.2-0.5,0.3c-0.2,0.1-0.4,0.1-0.7,0.2
			c-0.2,0-0.5,0.1-0.8,0.1c-0.3,0-0.5,0.1-0.8,0.1c-0.3,0-0.5,0.1-0.8,0.2c-0.2,0.1-0.5,0.2-0.6,0.3c-0.2,0.1-0.3,0.3-0.4,0.5
			S227,16.7,227,17c0,0.3,0.1,0.6,0.2,0.8s0.3,0.4,0.5,0.5c0.2,0.1,0.4,0.2,0.7,0.3c0.3,0,0.5,0.1,0.8,0.1c0.7,0,1.2-0.1,1.6-0.3
			c0.4-0.2,0.6-0.5,0.8-0.8s0.3-0.6,0.3-0.9c0-0.3,0.1-0.6,0.1-0.8V14.5z"/>
		<path style="fill:#FFFFFF;" d="M241.2,8.2v1.7h0c0.4-0.6,1-1.1,1.6-1.5c0.6-0.4,1.4-0.5,2.2-0.5c0.8,0,1.5,0.2,2.1,0.5
			c0.6,0.3,1.1,0.8,1.5,1.6c0.4-0.5,0.9-1,1.5-1.4c0.6-0.4,1.4-0.6,2.2-0.6c0.7,0,1.3,0.1,1.8,0.2c0.6,0.2,1,0.4,1.4,0.8
			c0.4,0.4,0.7,0.8,0.9,1.4c0.2,0.6,0.3,1.3,0.3,2.1v8.3h-3.4v-7c0-0.4,0-0.8,0-1.2c0-0.4-0.1-0.7-0.3-1c-0.1-0.3-0.4-0.5-0.6-0.6
			c-0.3-0.2-0.7-0.2-1.1-0.2c-0.5,0-0.9,0.1-1.2,0.3c-0.3,0.2-0.5,0.4-0.7,0.7c-0.2,0.3-0.3,0.6-0.3,1c-0.1,0.4-0.1,0.8-0.1,1.1v6.9
			h-3.4v-7c0-0.4,0-0.7,0-1.1c0-0.4-0.1-0.7-0.2-1c-0.1-0.3-0.3-0.5-0.6-0.7s-0.7-0.3-1.2-0.3c-0.2,0-0.4,0-0.6,0.1
			c-0.3,0.1-0.5,0.2-0.8,0.4c-0.2,0.2-0.5,0.5-0.6,0.9c-0.2,0.4-0.3,0.9-0.3,1.5v7.2H238V8.2H241.2z"/>
		<path style="fill:#FFFFFF;" d="M262.5,17.5c0.2,0.3,0.3,0.5,0.6,0.6s0.5,0.3,0.8,0.4c0.3,0.1,0.6,0.1,1,0.1c0.2,0,0.5,0,0.8-0.1
			c0.3-0.1,0.5-0.1,0.7-0.3c0.2-0.1,0.4-0.3,0.5-0.5c0.1-0.2,0.2-0.5,0.2-0.8c0-0.5-0.3-0.9-1-1.2c-0.7-0.3-1.6-0.5-2.8-0.8
			c-0.5-0.1-1-0.2-1.5-0.4c-0.5-0.2-0.9-0.4-1.3-0.6s-0.7-0.6-0.9-0.9c-0.2-0.4-0.3-0.8-0.3-1.4c0-0.8,0.2-1.5,0.5-2
			c0.3-0.5,0.7-0.9,1.2-1.2c0.5-0.3,1.1-0.5,1.7-0.6c0.6-0.1,1.3-0.2,2-0.2s1.3,0.1,2,0.2s1.2,0.3,1.7,0.6c0.5,0.3,0.9,0.7,1.2,1.2
			s0.5,1.1,0.6,1.9H267c0-0.7-0.3-1.1-0.7-1.3c-0.4-0.2-1-0.3-1.6-0.3c-0.2,0-0.4,0-0.6,0c-0.2,0-0.4,0.1-0.6,0.2s-0.3,0.2-0.5,0.3
			s-0.2,0.4-0.2,0.6c0,0.3,0.1,0.6,0.3,0.7c0.2,0.2,0.5,0.3,0.9,0.5c0.4,0.1,0.8,0.2,1.2,0.3c0.5,0.1,0.9,0.2,1.4,0.3
			c0.5,0.1,1,0.2,1.5,0.4c0.5,0.2,0.9,0.4,1.3,0.6s0.7,0.6,0.9,1c0.2,0.4,0.3,0.9,0.3,1.5c0,0.8-0.2,1.5-0.5,2.1
			c-0.3,0.6-0.8,1-1.3,1.3s-1.1,0.6-1.8,0.7c-0.7,0.1-1.4,0.2-2.1,0.2c-0.7,0-1.4-0.1-2.1-0.2c-0.7-0.1-1.3-0.4-1.8-0.7
			s-1-0.8-1.3-1.3c-0.3-0.6-0.5-1.2-0.6-2.1h3.2C262.3,16.9,262.4,17.2,262.5,17.5z"/>
	</g>
</g>
</svg>
