<?xml version="1.0" encoding="utf-8"?>
<!-- Generator: Adobe Illustrator 19.1.0, SVG Export Plug-In . SVG Version: 6.00 Build 0)  -->
<svg version="1.1" id="Layer_1" xmlns="http://www.w3.org/2000/svg" xmlns:xlink="http://www.w3.org/1999/xlink" x="0px" y="0px"
	 viewBox="0 0 76.4 59.4" style="enable-background:new 0 0 76.4 59.4;" xml:space="preserve">
<g>
	<defs>
		<rect id="SVGID_1_" width="76.4" height="59.4"/>
	</defs>
	<clipPath id="SVGID_2_">
		<use xlink:href="#SVGID_1_"  style="overflow:visible;"/>
	</clipPath>
	<g transform="matrix(1 0 0 1 0 0)" style="clip-path:url(#SVGID_2_);">
		
			<image style="overflow:visible;" width="779" height="616" xlink:href="E136E13CB5F37DF.jpg"  transform="matrix(0.111 0 0 0.111 -5.2862 -4.4375)">
		</image>
	</g>
</g>
<g>
	<g>
		<g>
			<g>
				<g>
					<path style="fill:#6D9D31;stroke:#000000;stroke-width:7.225300e-02;" d="M30.2,29.4L26.2,3.8c1.3-0.2,2.8-0.3,4.1-0.3V29.4z"
						/>
				</g>
			</g>
			<g>
				<g>
					<path style="fill:#FFC20E;stroke:#000000;stroke-width:7.225300e-02;" d="M30.2,29.4l-7.1,24.9C9.3,50.4,1.4,36,5.3,22.2
						c2.9-10,10.6-16.8,20.9-18.5L30.2,29.4z"/>
				</g>
			</g>
			<g>
				<g>
					<path style="fill:#008EB0;stroke:#000000;stroke-width:7.225300e-02;" d="M30.2,29.4L55.9,33c-2,14.2-15.1,24.1-29.3,22.1
						c-1.3-0.2-2.3-0.4-3.5-0.8L30.2,29.4z"/>
				</g>
			</g>
			<g>
				<g>
					<path style="fill:#C1272D;stroke:#000000;stroke-width:7.225300e-02;" d="M30.2,29.4l25.6-4.1c0.4,2.6,0.4,5.1,0.1,7.7
						L30.2,29.4z"/>
				</g>
			</g>
			<g>
				<g>
					<path style="fill:#5B57A6;stroke:#000000;stroke-width:7.225300e-02;" d="M30.2,29.4l19.6-17c3.4,3.9,5.2,7.8,6,13L30.2,29.4z"
						/>
				</g>
			</g>
			<g>
				<g>
					<path style="fill:#F7941E;stroke:#000000;stroke-width:7.225300e-02;" d="M30.2,29.4V3.5c7.8,0,14.4,3,19.6,8.9L30.2,29.4z"/>
				</g>
			</g>
		</g>
		<g>
			<g>
			</g>
			<g>
			</g>
			<g>
			</g>
			<g>
			</g>
			<g>
			</g>
			<g>
			</g>
		</g>
	</g>
	<circle cx="30.2" cy="29.5" r="1"/>
</g>
<g style="opacity:0.2;">
	<circle style="fill:none;stroke:#000000;stroke-width:0.1051;" cx="30.3" cy="29.5" r="25.6"/>
	<circle style="fill:none;stroke:#000000;stroke-width:0.1051;" cx="30.3" cy="29.5" r="25.3"/>
	<circle style="fill:none;stroke:#000000;stroke-width:0.1051;" cx="30.3" cy="29.5" r="25.1"/>
	<circle style="fill:none;stroke:#000000;stroke-width:0.1051;" cx="30.3" cy="29.5" r="24.8"/>
	<circle style="fill:none;stroke:#000000;stroke-width:0.1051;" cx="30.3" cy="29.5" r="24.6"/>
	<circle style="fill:none;stroke:#000000;stroke-width:0.1051;" cx="30.3" cy="29.5" r="24.3"/>
	<circle style="fill:none;stroke:#000000;stroke-width:0.1051;" cx="30.3" cy="29.5" r="23.7"/>
	<circle style="fill:none;stroke:#000000;stroke-width:0.1051;" cx="30.3" cy="29.5" r="23"/>
	<circle style="fill:none;stroke:#000000;stroke-width:0.1051;" cx="30.3" cy="29.5" r="22.7"/>
	<circle style="fill:none;stroke:#000000;stroke-width:0.1051;" cx="30.3" cy="29.5" r="22.1"/>
	<circle style="fill:none;stroke:#000000;stroke-width:0.1051;" cx="30.3" cy="29.5" r="21.4"/>
	<circle style="fill:none;stroke:#000000;stroke-width:0.1051;" cx="30.3" cy="29.5" r="20.7"/>
	<circle style="fill:none;stroke:#000000;stroke-width:0.1051;" cx="30.3" cy="29.5" r="19.9"/>
</g>
<circle style="opacity:0.2;fill:none;stroke:#000000;stroke-width:0.1051;" cx="30.3" cy="29.5" r="19.2"/>
<circle style="opacity:0.2;fill:none;stroke:#000000;stroke-width:0.1051;" cx="30.3" cy="29.5" r="18.6"/>
<circle style="opacity:0.2;fill:none;stroke:#000000;stroke-width:0.1051;" cx="30.3" cy="29.5" r="18.2"/>
<path style="opacity:0.2;fill:none;stroke:#000000;stroke-width:0.1051;" d="M12.8,29.5c0-9.6,7.8-17.5,17.5-17.5
	c9.6,0,17.5,7.8,17.5,17.5c0,9.6-7.8,17.5-17.5,17.5C20.6,47,12.8,39.2,12.8,29.5z"/>
<path style="opacity:0.2;fill:none;stroke:#000000;stroke-width:0.1051;" d="M13.5,29.5c0-9.3,7.5-16.8,16.8-16.8
	c9.3,0,16.8,7.5,16.8,16.8c0,9.3-7.5,16.8-16.8,16.8C21,46.4,13.5,38.8,13.5,29.5z"/>
<circle style="opacity:0.2;fill:none;stroke:#000000;stroke-width:0.1051;" cx="30.3" cy="29.5" r="16"/>
<path style="opacity:0.2;fill:none;stroke:#000000;stroke-width:0.1051;" d="M15,29.5c0-8.4,6.8-15.3,15.3-15.3
	c8.4,0,15.3,6.8,15.3,15.3c0,8.4-6.8,15.3-15.3,15.3C21.9,44.8,15,38,15,29.5z"/>
<circle style="opacity:0.2;fill:none;stroke:#000000;stroke-width:0.1051;" cx="30.3" cy="29.5" r="14.4"/>
<path style="opacity:0.2;fill:none;stroke:#000000;stroke-width:0.1051;" d="M16.5,29.5c0-7.6,6.2-13.8,13.8-13.8
	c7.6,0,13.8,6.2,13.8,13.8c0,7.6-6.2,13.8-13.8,13.8C22.7,43.3,16.5,37.1,16.5,29.5z"/>
<circle style="opacity:0.2;fill:none;stroke:#000000;stroke-width:0.1051;" cx="30.3" cy="29.5" r="13.2"/>
<circle style="opacity:0.2;fill:none;stroke:#000000;stroke-width:0.1051;" cx="30.3" cy="29.5" r="12.8"/>
<path style="opacity:0.2;fill:none;stroke:#000000;stroke-width:0.1051;" d="M18.2,29.5c0-6.7,5.4-12.1,12.1-12.1
	c6.7,0,12.1,5.4,12.1,12.1c0,6.7-5.4,12.1-12.1,12.1C23.6,41.7,18.2,36.2,18.2,29.5z"/>
<circle style="opacity:0.2;fill:none;stroke:#000000;stroke-width:0.1051;" cx="30.3" cy="29.5" r="12.3"/>
<circle style="opacity:0.2;fill:none;stroke:#000000;stroke-width:0.1051;" cx="30.3" cy="29.5" r="11.3"/>
<circle style="opacity:0.2;fill:none;stroke:#000000;stroke-width:0.1051;" cx="30.3" cy="29.5" r="10.4"/>
<circle style="opacity:0.2;fill:none;stroke:#000000;stroke-width:0.1051;" cx="30.3" cy="29.5" r="10"/>
<circle style="opacity:0.2;fill:none;stroke:#000000;stroke-width:0.1051;" cx="30.3" cy="29.5" r="9.4"/>
<path style="opacity:0.2;fill:none;stroke:#000000;stroke-width:0.1051;" d="M21.6,29.5c0-4.8,3.9-8.7,8.7-8.7
	c4.8,0,8.7,3.9,8.7,8.7c0,4.8-3.9,8.7-8.7,8.7C25.5,38.3,21.6,34.4,21.6,29.5z"/>
<circle style="opacity:0.2;fill:none;stroke:#000000;stroke-width:0.1051;" cx="30.3" cy="29.5" r="8.5"/>
<circle style="opacity:0.2;fill:none;stroke:#000000;stroke-width:0.1051;" cx="30.3" cy="29.5" r="7.4"/>
<circle style="opacity:0.2;fill:none;stroke:#000000;stroke-width:0.1051;" cx="32.6" cy="33" r="8"/>
</svg>
